<?xml version="1.0" encoding="utf-8"?>
<!-- Generator: Adobe Illustrator 23.0.1, SVG Export Plug-In . SVG Version: 6.00 Build 0)  -->
<svg version="1.1" id="Lager_1" xmlns="http://www.w3.org/2000/svg" xmlns:xlink="http://www.w3.org/1999/xlink" x="0px" y="0px"
	 viewBox="0 0 24 24" style="enable-background:new 0 0 24 24;" xml:space="preserve">
<style type="text/css">
	.st0{fill:#FFFFFF;}
	.st1{fill:none;}
</style>
<path class="st0" d="M16.8,14.8h-1.1l-0.4-0.4c1.3-1.5,2.1-3.5,2.1-5.7c0-4.8-3.9-8.7-8.7-8.7S0,3.9,0,8.7s3.9,8.7,8.7,8.7
	c2.2,0,4.2-0.8,5.7-2.1l0.4,0.4v1.1l6.7,6.7l2-2L16.8,14.8z M8.7,14.8c-3.3,0-6-2.7-6-6s2.7-6,6-6s6,2.7,6,6S12.1,14.8,8.7,14.8z"/>
<path class="st1" d="M0,0h24v24H0V0z"/>
</svg>
