<?xml version="1.0" encoding="utf-8"?>
<!-- Generator: Adobe Illustrator 24.0.2, SVG Export Plug-In . SVG Version: 6.00 Build 0)  -->
<svg version="1.1" id="Lager_1" xmlns="http://www.w3.org/2000/svg" xmlns:xlink="http://www.w3.org/1999/xlink" x="0px" y="0px"
	 viewBox="0 0 24 24" style="enable-background:new 0 0 24 24;" xml:space="preserve">
<style type="text/css">
	.st0{fill:none;}
	.st1{fill:#FFFFFF;}
</style>
<defs>
	<mask id="stadia-logo">
		<rect fill="white" width="24" height="24" />
		<path fill-color="black" d="M1.2,9C1.1,9,1,9.2,1,9.3l0,0c0,0.1,0,0.1,0,0.2l2.1,4.8c0.1,0.2,0.3,0.3,0.6,0.2c1.4-0.5,6.2-2.1,9.2-1.2
			c0,0-3.1,0.2-5.9,2.4c-0.2,0.1-0.2,0.3-0.1,0.5c0.2,0.5,0.7,1.5,0.9,2.1l0.4,0.9c0.1,0.2,0.4,0.2,0.5,0c0.7-1,1.8-1.5,2.8-1.9
			c1.1-0.4,2.2-0.8,3.4-1s2.5-0.3,3.7-0.2c0.2,0,0.4-0.1,0.5-0.3l1-3c0.1-0.2,0-0.4-0.2-0.5C18.8,11.6,14.6,9,7.2,10
			c0,0,6.3-3.6,14.3,0.3c0.2,0.1,0.5,0,0.6-0.3L23,7.4V7.3l0,0c0-0.2-0.1-0.3-0.2-0.4c-1-0.6-4.4-2.3-9.1-2.3C10.1,4.7,5.8,5.7,1.2,9"
			/>
		<rect x="17.5" y="17" rx="0.25" ry="0.25" width="1" height="4" />
		<rect x="16" y="18.5" rx="0.25" ry="0.25" width="4" height="1" />
	</mask>
</defs>
<path class="st0" d="M0,0h24v24H0V0z"/>
<rect class="st1" width="24" height="24" rx="3" ry="3" mask="url(#stadia-logo)" />
</svg>

