<svg width="24" height="24" viewBox="0 0 24 24" fill="none" xmlns="http://www.w3.org/2000/svg">
<g clip-path="url(#clip0)">
<path d="M23.3918 8.60795C23.4609 8.67707 23.4997 8.77082 23.4997 8.86857V15.1314C23.4997 15.2292 23.4609 15.3229 23.3918 15.3921C23.3227 15.4612 23.2289 15.5 23.1312 15.5H16.8684C16.5055 15.5 16.1574 15.6442 15.9007 15.9008C15.644 16.1575 15.4999 16.5056 15.4999 16.8686V23.1314C15.4999 23.2292 15.461 23.3229 15.3919 23.3921C15.3228 23.4612 15.229 23.5 15.1313 23.5H8.86856C8.77081 23.5 8.67707 23.4612 8.60795 23.3921C8.53883 23.3229 8.5 23.2292 8.5 23.1314V16C8.5 14.0109 9.29016 12.1032 10.6967 10.6967C12.1032 9.29017 14.0108 8.5 15.9999 8.5H23.1312C23.2289 8.5 23.3227 8.53883 23.3918 8.60795Z" stroke="white"/>
<path d="M0.607951 15.3921C0.538833 15.3229 0.5 15.2292 0.5 15.1314V8.86857C0.5 8.77082 0.538832 8.67707 0.607951 8.60795C0.677069 8.53883 0.770811 8.5 0.868556 8.5H7.1313C7.49427 8.5 7.84237 8.35581 8.09902 8.09915C8.35568 7.8425 8.49986 7.4944 8.49986 7.13143V0.868572C8.49986 0.770818 8.53869 0.677069 8.60781 0.607949C8.67693 0.538829 8.77067 0.5 8.86842 0.5H15.1312C15.2289 0.5 15.3227 0.53883 15.3918 0.607949C15.4609 0.677068 15.4997 0.770816 15.4997 0.868572V8C15.4997 9.98913 14.7096 11.8968 13.3031 13.3033C11.8966 14.7098 9.98894 15.5 7.99986 15.5H0.868556C0.770811 15.5 0.677069 15.4612 0.607951 15.3921Z" fill="white" stroke="white"/>
</g>
<defs>
<clipPath id="clip0">
<rect width="24" height="24" fill="white"/>
</clipPath>
</defs>
</svg>
