<?xml version="1.0" encoding="utf-8"?>
<!-- Generator: Adobe Illustrator 24.1.1, SVG Export Plug-In . SVG Version: 6.00 Build 0)  -->
<svg version="1.1" id="Lager_1" xmlns="http://www.w3.org/2000/svg" xmlns:xlink="http://www.w3.org/1999/xlink" x="0px" y="0px"
	 viewBox="0 0 210 210" style="enable-background:new 0 0 210 210;" xml:space="preserve">
<style type="text/css">
	.st0{clip-path:url(#SVGID_2_);}
	.st1{fill:url(#SVGID_3_);}
	.st2{fill:url(#SVGID_4_);}
</style>
<g>
	<g id="Lager_2_1_">
		<g id="Lager_1-2">
			<g>
				<defs>
					<path id="SVGID_1_" d="M202.4,70H140V7.6c0-4.2-3.4-7.6-7.6-7.6c0,0,0,0,0,0H77.6C73.4,0,70,3.4,70,7.6v54.8
						c0,4.2-3.4,7.6-7.6,7.6H7.6C3.4,70,0,73.4,0,77.6v54.8c0,4.2,3.4,7.6,7.6,7.6c0,0,0,0,0,0H70v62.4c0,4.2,3.4,7.6,7.6,7.6
						c0,0,0,0,0,0h54.8c4.2,0,7.6-3.4,7.6-7.6v0v-54.8c0-4.2,3.4-7.6,7.6-7.6h0h54.8c4.2,0,7.6-3.4,7.6-7.6v0V77.6
						C210,73.4,206.6,70,202.4,70L202.4,70z"/>
				</defs>
				<clipPath id="SVGID_2_">
					<use xlink:href="#SVGID_1_"  style="overflow:visible;"/>
				</clipPath>
				<g class="st0">
					
						<linearGradient id="SVGID_3_" gradientUnits="userSpaceOnUse" x1="76.3084" y1="-5.3599" x2="169.1514" y2="155.4454" gradientTransform="matrix(1 0 0 -1 12 212)">
						<stop  offset="0" style="stop-color:#BD1856"/>
						<stop  offset="1" style="stop-color:#B81572"/>
					</linearGradient>
					<path class="st1" d="M210,77.6c0-4.2-3.4-7.6-7.6-7.6l0,0H140c-38.7,0-70,31.3-70,70l0,0v62.4c0,4.2,3.4,7.6,7.6,7.6
						c0,0,0,0,0,0h54.8c4.2,0,7.6-3.4,7.6-7.6v0v-54.8c0-4.2,3.4-7.6,7.6-7.6h0h54.8c4.2,0,7.6-3.4,7.6-7.6v0L210,77.6z"/>
					
						<image style="overflow:visible;opacity:0.2;enable-background:new    ;" width="170" height="170" xlink:href="7B3B442D.png"  transform="matrix(1 0 0 1 -12 -12)">
					</image>
					
						<linearGradient id="SVGID_4_" gradientUnits="userSpaceOnUse" x1="16.8486" y1="58.5546" x2="109.6916" y2="219.3599" gradientTransform="matrix(1 0 0 -1 12 212)">
						<stop  offset="0" style="stop-color:#FA5621"/>
						<stop  offset="1" style="stop-color:#D82C51"/>
					</linearGradient>
					<path class="st2" d="M0,132.4c0,4.2,3.4,7.6,7.6,7.6c0,0,0,0,0,0H70c38.7,0,70-31.3,70-70l0,0V7.6c0-4.2-3.4-7.6-7.6-7.6
						c0,0,0,0,0,0H77.6C73.4,0,70,3.4,70,7.6v54.8c0,4.2-3.4,7.6-7.6,7.6H7.6C3.4,70,0,73.4,0,77.6V132.4z"/>
				</g>
			</g>
		</g>
	</g>
</g>
</svg>
