<?xml version="1.0" encoding="utf-8"?>
<!-- Generator: Adobe Illustrator 23.0.1, SVG Export Plug-In . SVG Version: 6.00 Build 0)  -->
<svg version="1.1" id="Layer_1" xmlns="http://www.w3.org/2000/svg" xmlns:xlink="http://www.w3.org/1999/xlink" x="0px" y="0px"
	 viewBox="0 0 2103.9 2102.2" style="enable-background:new 0 0 2103.9 2102.2;" xml:space="preserve">
<style type="text/css">
	.st0{fill:#000000;}
</style>
<defs>
	<mask id="stadia-icon">
		<rect width="2103.9" height="2102.2" rx="100" ry="100" fill="white" />
		<path fill="black" d="M37.7,764.7c-11,7.9-17.2,20.6-17.2,33.5v0.3c0,5.5,1.2,11,3.4,16.3l197.7,447.7c8.6,19.6,30.9,29.2,51.6,22
	c129.3-46.1,577-191.9,866.8-113.5c0,0-290.5,17.2-553.6,223.1c-14.8,11.7-19.8,32-12,49.2c21.3,48.1,64.1,145.1,88.4,199.8l34,79.9
	c8.1,18.9,34,21,45.4,3.8c61.4-92.3,164.7-138.4,264.1-178.8c101.8-41.3,208-71.9,316.3-90.1c115.2-19.6,233.1-24.8,349.7-14.4
	c19.4,1.7,37.5-10.3,43.3-28.9l89.4-285c5.2-16.8-1-35.2-15.5-45.6c-99.4-72.2-493.4-314.1-1186.2-217c0,0,591.4-339.4,1341.8,33.7
	c22.9,11.3,50.2-0.7,57.9-24.8l78.6-251.3c1-4,1.7-7.9,1.7-12v-1c0-14.3-7.9-27.9-21-35.2c-94-53.1-412.9-213-851.7-213
	C874.4,363.5,468,457.3,37.7,764.7"/>
		<rect id="plus-vertical" x="1400" y="1525" width="100" height="350" rx="25" ry="25" fill="black" />
		<rect id="plus-horizontal" x="1270" y="1640" width="350" height="100" rx="25" ry="25" fill="black" />
	</mask>
</defs>
	<rect id="icon" class="st0" mask="url(#stadia-icon)" width="2103.9" height="2102.2" />
</svg>
