<svg width="16" height="17" viewBox="0 0 16 17" fill="none" xmlns="http://www.w3.org/2000/svg">
<g clip-path="url(#clip0)">
<path d="M15.6826 8.68368C15.6826 8.13986 15.6385 7.5931 15.5444 7.05811H7.99854V10.1388H12.3197C12.1404 11.1323 11.5642 12.0113 10.7206 12.5698V14.5687H13.2986C14.8124 13.1753 15.6826 11.1176 15.6826 8.68368Z" fill="#4285F4"/>
<path d="M7.99849 16.5C10.1561 16.5 11.9757 15.7915 13.3014 14.5687L10.7235 12.5698C10.0062 13.0578 9.08024 13.3341 8.00143 13.3341C5.91434 13.3341 4.14473 11.926 3.50978 10.033H0.849487V12.0936C2.20756 14.795 4.97368 16.5 7.99849 16.5Z" fill="#34A853"/>
<path d="M3.50689 10.0331C3.17179 9.0395 3.17179 7.96362 3.50689 6.97005V4.90942H0.849536C-0.285132 7.16994 -0.285132 9.83318 0.849536 12.0937L3.50689 10.0331Z" fill="#FBBC04"/>
<path d="M7.99849 3.66595C9.13903 3.64831 10.2414 4.07749 11.0674 4.86529L13.3514 2.58126C11.9052 1.22318 9.98563 0.476534 7.99849 0.500051C4.97368 0.500051 2.20756 2.20499 0.849487 4.90938L3.50685 6.97001C4.13885 5.074 5.9114 3.66595 7.99849 3.66595Z" fill="#EA4335"/>
</g>
<defs>
<clipPath id="clip0">
<rect width="15.6825" height="16" fill="white" transform="translate(0 0.5)"/>
</clipPath>
</defs>
</svg>
